<svg xmlns="http://www.w3.org/2000/svg" width="30" height="30" viewBox="0 0 30 30"><defs><style>.a{fill:#1bceb8;}.b{fill:#09adb5;}.c{fill:#0dbfba;}.d{fill:#eff;}</style></defs><path class="a" d="M30,15A15,15,0,1,1,15,0,15.013,15.013,0,0,1,30,15Z"/><path class="b" d="M248,0a15,15,0,0,1,0,30" transform="translate(-233)"/><path class="c" d="M72.8,4.591A14.986,14.986,0,0,1,93.994,25.785" transform="translate(-68.397 -0.188)"/><g transform="translate(7.935 7.935)"><path class="d" d="M144.6,240.968H131.926c-.387,0-.726-.1-.726-.484s.339-.484.726-.484H144.6c.387,0,.726.1.726.484S144.99,240.968,144.6,240.968Z" transform="translate(-131.2 -233.419)"/><path class="d" d="M240.484,145.281c-.387,0-.484-.29-.484-.726V131.926c0-.387.1-.726.484-.726s.484.29.484.726V144.6C240.968,144.99,240.871,145.281,240.484,145.281Z" transform="translate(-233.419 -131.2)"/></g></svg>