<svg xmlns="http://www.w3.org/2000/svg" width="26.574" height="20" viewBox="0 0 26.574 20"><defs><style>.a{fill:#cee8fa;}.b{fill:#2d527c;}</style></defs><g transform="translate(0 -63.334)"><path class="a" d="M27.706,89.982a5.52,5.52,0,0,1,6.6-5.412,5.99,5.99,0,0,0-11.125-4.319,4.23,4.23,0,1,0-2.941,7.336l-.071,0a4.232,4.232,0,0,1-4.02-2.912,4.493,4.493,0,0,0-2.571,4.062h0a4.493,4.493,0,0,0,4.493,4.493h10.7A5.491,5.491,0,0,1,27.706,89.982Z" transform="translate(-12.872 -12.871)"/><g transform="translate(0 63.334)"><path class="b" d="M25.153,73.152a.7.7,0,0,0-1.087.9,4.814,4.814,0,1,1-8.472,3.794v0c-.011-.071-.02-.143-.028-.216,0-.018,0-.037-.005-.055-.005-.057-.01-.115-.013-.172,0-.021,0-.041,0-.061,0-.075-.006-.15-.006-.226a4.815,4.815,0,0,1,5.756-4.72.7.7,0,0,0,.814-.495A6.7,6.7,0,0,0,10.1,66.331a4.935,4.935,0,0,0-7.6,4.157,4.984,4.984,0,0,0,.08.889A5.2,5.2,0,0,0,5.2,81.066H15.551a6.222,6.222,0,1,0,9.6-7.914Zm-10.482,6.5H5.2a3.788,3.788,0,0,1-2.252-6.834,4.924,4.924,0,0,0,4.349,2.6h.083a.7.7,0,0,0,0-1.409A3.525,3.525,0,1,1,9.829,67.9a.7.7,0,0,0,1.11-.206,5.285,5.285,0,0,1,9.952,3.219q-.269-.023-.539-.023a6.23,6.23,0,0,0-6.223,6.223q0,.082,0,.163c0,.03,0,.06,0,.089s0,.047,0,.071c0,.043.005.086.008.128,0,.01,0,.02,0,.029q.006.077.014.154v0A6.16,6.16,0,0,0,14.672,79.657Z" transform="translate(0 -63.334)"/><path class="b" d="M326.358,288.034a.7.7,0,0,1-.5-.206l-1.655-1.655a.7.7,0,0,1,0-1l1.655-1.655a.7.7,0,0,1,1,1l-1.156,1.156,1.156,1.156a.7.7,0,0,1-.5,1.2Z" transform="translate(-307.182 -271.897)"/><path class="b" d="M401.888,288.035a.7.7,0,0,1-.5-1.2l1.156-1.156-1.156-1.156a.7.7,0,1,1,1-1l1.655,1.655a.7.7,0,0,1,0,1l-1.655,1.655A.7.7,0,0,1,401.888,288.035Z" transform="translate(-380.361 -271.898)"/></g></g></svg>