<svg xmlns="http://www.w3.org/2000/svg" width="21.272" height="21" viewBox="0 0 21.272 21"><defs><style>.a{fill:#efce4a;}.b{fill:#f7e6a1;}.c{fill:#434c6d;}.d{fill:#26b99a;}.e{fill:#fff;}</style></defs><path class="a" d="M11.5,16.352l-5.974,1.6L5.04,16.142a2.984,2.984,0,0,0-3.655-2.11L0,14.4,4.281,1.365l10.226,9.151-1.385.371a2.984,2.984,0,0,0-2.11,3.655Z" transform="translate(0 -0.991)"/><path class="b" d="M13.36,10.5a.373.373,0,0,1-.36-.277L10.484.834a.373.373,0,1,1,.721-.193l2.515,9.387a.373.373,0,0,1-.264.457A.363.363,0,0,1,13.36,10.5Z" transform="translate(-6.564 -0.364)"/><rect class="c" width="6.184" height="2.209" transform="matrix(0.966, -0.259, 0.259, 0.966, 5.549, 16.968)"/><path class="b" d="M16.276,28.8a1.7,1.7,0,1,1,.441-.058A1.7,1.7,0,0,1,16.276,28.8Zm0-2.651a.952.952,0,0,0-.921,1.2.964.964,0,0,0,1.166.674.952.952,0,0,0-.246-1.872Z" transform="translate(-9.138 -16.056)"/><circle class="d" cx="3.732" cy="3.732" r="3.732" transform="translate(13.808 13.536)"/><path class="e" d="M46.373,44.861A.373.373,0,0,1,46,44.487V40.009a.373.373,0,1,1,.746,0v4.478A.373.373,0,0,1,46.373,44.861Z" transform="translate(-28.833 -24.98)"/><path class="e" d="M44.851,46.382H40.373a.373.373,0,0,1,0-.746h4.478a.373.373,0,1,1,0,.746Z" transform="translate(-25.073 -28.741)"/></svg>