<svg xmlns="http://www.w3.org/2000/svg" width="24.537" height="30" viewBox="0 0 24.537 30"><defs><style>.a{fill:#9ce0ff;}.b{fill:#00aeef;}.c{fill:#c6490f;}</style></defs><g transform="translate(-37.4)"><path class="a" d="M66.432,146.8a2.344,2.344,0,0,1,2.337,2.337v14.021a2.344,2.344,0,0,1-2.337,2.337h-18.7a2.344,2.344,0,0,1-2.337-2.337V149.137a2.344,2.344,0,0,1,2.337-2.337Z" transform="translate(-7.416 -136.079)"/><path class="b" d="M59.016,158.664h-18.7a2.93,2.93,0,0,1-2.921-2.921V141.721a2.93,2.93,0,0,1,2.921-2.921h18.7a2.93,2.93,0,0,1,2.921,2.921v14.021A2.93,2.93,0,0,1,59.016,158.664Zm-18.7-18.7a1.758,1.758,0,0,0-1.753,1.753v14.021a1.758,1.758,0,0,0,1.753,1.753h18.7a1.758,1.758,0,0,0,1.753-1.753V141.721a1.758,1.758,0,0,0-1.753-1.753h-18.7Z" transform="translate(0 -128.664)"/><g transform="translate(43.914 0)"><path class="c" d="M197.984,30.282a.586.586,0,0,1-.584-.584V15.384a.584.584,0,0,1,1.168,0V29.7A.586.586,0,0,1,197.984,30.282Z" transform="translate(-192.23 -13.719)"/><path class="c" d="M197.984,248.845a.586.586,0,0,1-.584-.584v-.876a.584.584,0,0,1,1.168,0v.876A.586.586,0,0,1,197.984,248.845Z" transform="translate(-192.23 -228.777)"/><path class="c" d="M137.525,6.339a.577.577,0,0,1-.409-.175L132.355,1.4l-4.761,4.761a.578.578,0,1,1-.818-.818l5.17-5.17a.565.565,0,0,1,.818,0l5.17,5.17a.565.565,0,0,1,0,.818A.577.577,0,0,1,137.525,6.339Z" transform="translate(-126.6 0)"/></g></g></svg>