<svg xmlns="http://www.w3.org/2000/svg" width="22.855" height="20" viewBox="0 0 22.855 20"><defs><style>.a{fill:#f1543f;}.b{fill:#ff7058;}.c{fill:#f9b54c;}.d{fill:#4cdbc4;}.e{fill:#fff;}.f{fill:#ffd05b;}.g{fill:#e6e9ee;}.h{fill:#2b3b4e;}.i{fill:#324a5e;}.j{fill:#54c0eb;}.k{fill:#84dbff;}</style></defs><g transform="translate(-3144.8 715.481)"><path class="a" d="M378.812,169.877a.705.705,0,0,1-.137.431,3.072,3.072,0,0,0-1.469-.353,2.769,2.769,0,0,0-1.469.353.861.861,0,0,1-.137-.431c0-.588.725-1.077,1.606-1.077S378.812,169.29,378.812,169.877Z" transform="translate(2786.67 -880.889)"/><path class="b" d="M360.186,195.436a7.447,7.447,0,0,1-.255,1.841h-5.014c-.039-.176-.078-.333-.118-.509a5.843,5.843,0,0,0,.725-3.721,2.715,2.715,0,0,1,1.88-.646C358.952,192.4,360.186,193.242,360.186,195.436Z" transform="translate(2806.451 -903.333)"/><path class="c" d="M375.184,320.772a1.862,1.862,0,0,1-.764,1.586l-2.82-1.371a1.855,1.855,0,0,1,.157-.588,2.119,2.119,0,0,0,1.665,1.312,2.16,2.16,0,0,0,1.665-1.312,2.068,2.068,0,0,1,.1.372Z" transform="translate(2790.474 -1025.066)"/><path class="d" d="M450.221,343.183a11.95,11.95,0,0,1-1.665,2.7l-.157-.509a7.443,7.443,0,0,0,.235-2.977Z" transform="translate(2717.434 -1045.989)"/><g transform="translate(3161.937 -704.314)"><path class="e" d="M430.14,331.3l-.627-1.958-.313-.157a1.862,1.862,0,0,0,.764-1.586C430.845,328.285,430.258,330.91,430.14,331.3Z" transform="translate(-426.243 -327.6)"/><path class="e" d="M368.957,328c-.02.059-.02.137-.039.215l-.117-.059A.6.6,0,0,1,368.957,328Z" transform="translate(-368.8 -327.98)"/></g><path class="f" d="M355.9,232.129c-.176.353-.47.509-.666.392-.45,1.156-1.175,2.056-2.017,2.056s-1.567-.9-2.017-2.056c-.2.118-.49-.059-.666-.392a1.468,1.468,0,0,1-.137-.45,3.912,3.912,0,0,0,.294-.509.382.382,0,0,1,.137.02h0l.02.02h0c0-.02-.078-.744,1.841-1.528a3.506,3.506,0,0,0,1.371-.881,1.662,1.662,0,0,0,.96,1.273s.588.137.529,1.116h0a.273.273,0,0,1,.274.02A.691.691,0,0,1,355.9,232.129Z" transform="translate(2810.636 -937.951)"/><path class="g" d="M326.823,371.995h0c-.039.274-.1.568-.137.881L326,370.8A2.506,2.506,0,0,1,326.823,371.995Z" transform="translate(2833.841 -1072.999)"/><path class="c" d="M256.25,302.478s.235,1.293-1.645,2.409l-2.135-1.038a1.869,1.869,0,0,1-.45-1.371H252a.148.148,0,0,1,.02-.078,2.47,2.47,0,0,0,4.23,0c0,.039.02.059,0,.078Z" transform="translate(2904.218 -1007.948)"/><path class="h" d="M345.084,326.1a12.462,12.462,0,0,1-4.367,3.427l-1.116-3.447c.059-.294.1-.588.137-.881a8.692,8.692,0,0,0,.294-3.6l4.23,2.037Z" transform="translate(2820.907 -1026.208)"/><g transform="translate(3155.748 -705.469)"><path class="e" d="M307.421,308.846a2.413,2.413,0,0,0-.823-1.195l-.137-.431-.862-.411c1.88-1.116,1.645-2.409,1.645-2.409C308.4,305.262,307.441,308.9,307.421,308.846Z" transform="translate(-302.506 -304.38)"/><path class="e" d="M243.34,305.371l-.94-.45a1.5,1.5,0,0,1,.49-.92A1.869,1.869,0,0,0,243.34,305.371Z" transform="translate(-242.4 -304)"/></g><path class="f" d="M242.728,209.475a12.157,12.157,0,0,0-.392,1.391h0a3.044,3.044,0,0,1-2.291,1.43,2.925,2.925,0,0,1-2.193-1.273.019.019,0,0,1,.02.02,4.043,4.043,0,0,1-.705-2.624h0a7.467,7.467,0,0,0,.47-1.763,5.793,5.793,0,0,0,2.585.627,1.213,1.213,0,0,1-1.058-.881c.157.45,2.193.725,2.193.725C243.433,207.418,242.728,209.475,242.728,209.475Z" transform="translate(2918.328 -916.648)"/><g transform="translate(3154.925 -713.473)"><path class="h" d="M226.853,250.224a6.017,6.017,0,0,1-1.253-1.508,8.5,8.5,0,0,0,.548-1.116A4.043,4.043,0,0,0,226.853,250.224Z" transform="translate(-225.6 -242.357)"/><path class="h" d="M241.61,148.235a13.719,13.719,0,0,1,.392-1.391,1.71,1.71,0,0,0-1.41-2.37s-2.037-.274-2.193-.725a1.222,1.222,0,0,0,1.058.881A5.793,5.793,0,0,1,236.87,144a5.632,5.632,0,0,0-.47-3.134,2.208,2.208,0,0,1,1.665-.1,3.507,3.507,0,0,1,4.328,1.449A5.485,5.485,0,0,1,241.61,148.235Z" transform="translate(-235.871 -140.524)"/></g><path class="i" d="M249.567,239.2h-3.8a.568.568,0,0,0-.568.568v.47a.568.568,0,0,0,.568.568h1.1a.618.618,0,0,0,.372-.137.153.153,0,0,0,.078-.078.364.364,0,0,1,.705,0,.153.153,0,0,0,.078.078.517.517,0,0,0,.372.137h1.1a.568.568,0,0,0,.568-.568v-.47A.568.568,0,0,0,249.567,239.2Zm-3.8,1.332a.3.3,0,0,1-.294-.294v-.47a.3.3,0,0,1,.294-.294h1.116a.3.3,0,0,1,.294.294v.47a.248.248,0,0,1-.02.118c-.02.02-.02.039-.039.059a.279.279,0,0,1-.235.118Zm1.9-.509a.521.521,0,0,0-.235.059v-.333a.649.649,0,0,0-.078-.294H248a.51.51,0,0,0-.078.294v.333A.676.676,0,0,0,247.668,240.023Zm2.193.215a.3.3,0,0,1-.294.294h-1.1a.279.279,0,0,1-.235-.118c-.02-.02-.02-.039-.039-.059a.248.248,0,0,1-.02-.118v-.47a.3.3,0,0,1,.294-.294h1.1a.3.3,0,0,1,.294.294Z" transform="translate(2910.685 -947.842)"/><g transform="translate(3147.679 -702.943)"><path class="g" d="M77.6,436.4c.02.039.059.059.078.078-.02-.02-.059-.039-.078-.078Z" transform="translate(-77.6 -432.444)"/><path class="g" d="M157.718,355.6c-.02,0-.039.02-.059.02s-.039-.02-.059-.02Z" transform="translate(-153.683 -355.6)"/><path class="g" d="M109.005,358.135a31.081,31.081,0,0,1-1.156,4.916,12.615,12.615,0,0,1-3.564-1.547,25.732,25.732,0,0,1-.685-3.369,2.778,2.778,0,0,1,5.405,0Z" transform="translate(-102.327 -355.98)"/></g><path class="c" d="M112.214,290.478s.313,1.763-2.487,3.134h-.02c-2.8-1.371-2.487-3.134-2.487-3.134h-.02c0-.02.02-.059.02-.078a2.92,2.92,0,0,0,4.975,0c.02.039.039.059.02.078C112.233,290.5,112.233,290.478,112.214,290.478Z" transform="translate(3041.928 -996.535)"/><g transform="translate(3150.676 -702.923)"><path class="j" d="M158.82,356Z" transform="translate(-157.821 -356)"/><path class="j" d="M140.778,356.274l-.333.96h-1.312l-.333-.96a1.921,1.921,0,0,1,1.978,0Z" transform="translate(-138.8 -356)"/></g><path class="k" d="M134.8,387l-.823-5.8h-1.312L132,385.881A12.123,12.123,0,0,0,134.8,387Z" transform="translate(3018.343 -1082.889)"/><path class="i" d="M23.637,320.8a12.465,12.465,0,0,1-4.837-5.777l3.8-1.821a10.187,10.187,0,0,0,.353,4.25A30.941,30.941,0,0,0,23.637,320.8Z" transform="translate(3126 -1018.219)"/><g transform="translate(3148.492 -706.057)"><path class="e" d="M161.287,292s.313,1.763-2.487,3.134a3.185,3.185,0,0,1,2.7,2.135C161.542,297.327,162.678,293.058,161.287,292Z" transform="translate(-155.637 -292)"/><path class="e" d="M94.873,292c-1.371,1.038-.235,5.327-.215,5.249a3.247,3.247,0,0,1,2.7-2.135C94.56,293.782,94.873,292,94.873,292Z" transform="translate(-94.198 -292)"/></g><path class="f" d="M96.083,180.443a17.1,17.1,0,0,0-.47,1.645,3.489,3.489,0,0,1-2.7,1.665,3.454,3.454,0,0,1-2.585-1.508l.02.02c-1.528-1.88-.47-5.347-.47-5.347.764.862,3.231.92,3.231.92a1.447,1.447,0,0,1-1.253-1.038c.176.529,2.566.842,2.566.842A2.031,2.031,0,0,1,96.083,180.443Z" transform="translate(3058.745 -888.497)"/><g transform="translate(3146.772 -715.481)"><path class="i" d="M62.526,99.817s3.369-1.351,5.072,1.7c1.841,3.251-.47,6.8-.94,7.07a17.1,17.1,0,0,1,.47-1.645s.823-2.409-1.645-2.781c0,0-2.409-.313-2.566-.842a1.447,1.447,0,0,0,1.253,1.038s-2.468-.059-3.231-.92c0,0-1.058,3.466.49,5.347A6.643,6.643,0,0,1,59.1,103.4C59.079,103.4,58.942,98.916,62.526,99.817Z" transform="translate(-59.073 -99.519)"/><path class="i" d="M199.2,321.163a12.4,12.4,0,0,1-8.4.8,31.084,31.084,0,0,0,1.156-4.916h0a10.391,10.391,0,0,0,.353-4.25l4.975,2.409Z" transform="translate(-184.35 -302.357)"/></g></g></svg>