<svg xmlns="http://www.w3.org/2000/svg" width="30" height="30" viewBox="0 0 30 30"><defs><style>.a{fill:#2196f3;}.b{fill:#607d8b;}.c{fill:#64b5f6;}</style></defs><g transform="translate(0 -0.004)"><path class="a" d="M42.6,16.254a3.75,3.75,0,1,1,0-7.5h2.5v-5A3.755,3.755,0,0,0,41.353,0H27.915A1.249,1.249,0,0,0,26.748,1.7l9.063,23.75a1.248,1.248,0,0,0,1.168.8h4.375A3.755,3.755,0,0,0,45.1,22.5v-6.25Zm0,0" transform="translate(-25.103)"/><path class="b" d="M284.353,119.071a1.252,1.252,0,0,1-.771-1.155v-3.75h-5a1.25,1.25,0,1,1,0-2.5h5v-3.75a1.25,1.25,0,0,1,2.134-.884l5,5a1.249,1.249,0,0,1,0,1.767l-5,5A1.25,1.25,0,0,1,284.353,119.071Zm0,0" transform="translate(-261.082 -100.412)"/><path class="c" d="M10.808,2.693,3.3.19A2.517,2.517,0,0,0,0,2.566v22.5a2.513,2.513,0,0,0,1.693,2.373l7.51,2.5a2.645,2.645,0,0,0,.8.124,2.5,2.5,0,0,0,2.5-2.5V5.066a2.513,2.513,0,0,0-1.692-2.373Zm0,0" transform="translate(0 -0.062)"/></g></svg>