<svg xmlns="http://www.w3.org/2000/svg" width="16.616" height="24" viewBox="0 0 16.616 24"><defs><style>.a{fill:#41bbbe;}</style></defs><g transform="translate(-83.711)"><g transform="translate(83.711 0)"><path class="a" d="M99.4,209.3a.935.935,0,0,0-.923.923v1.846a6.462,6.462,0,0,1-12.924,0v-1.846a.923.923,0,0,0-1.846,0v1.846a8.307,8.307,0,0,0,7.385,8.25v1.9H87.4a.923.923,0,0,0,0,1.846h9.231a.923.923,0,0,0,0-1.846H92.942v-1.9a8.307,8.307,0,0,0,7.385-8.25v-1.846a.936.936,0,0,0-.923-.923Z" transform="translate(-83.711 -200.067)"/><path class="a" d="M169.873,8.986h-2.44v1.693h2.44a.675.675,0,1,1,0,1.35h-2.439a4.614,4.614,0,0,0,9.228,0h-2.354a.675.675,0,1,1,0-1.35h2.355V8.986h-2.355a.675.675,0,1,1,0-1.35h2.355v-1.8h-2.355a.675.675,0,1,1,0-1.35h2.349a4.437,4.437,0,0,0-1.35-3.132,4.6,4.6,0,0,0-6.52,0,4.435,4.435,0,0,0-1.35,3.132h2.434a.675.675,0,1,1,0,1.35h-2.44v1.8h2.44a.675.675,0,1,1,0,1.35Z" transform="translate(-163.741 0)"/></g></g></svg>