<svg xmlns="http://www.w3.org/2000/svg" width="31.426" height="16" viewBox="0 0 31.426 16"><defs><style>.a{fill:#f6725f;}</style></defs><g transform="translate(0 -7.827)"><path class="a" d="M27.686,7.828a3.747,3.747,0,0,0-3.748,3.746,3.619,3.619,0,0,0,.073.727l-4.736,4.265a3.758,3.758,0,0,0-1.293-.228,4.389,4.389,0,0,0-.512.032l-2.686-3.588a3.746,3.746,0,1,0-7.291-1.209,3.708,3.708,0,0,0,.252,1.355l-3.082,3.52a3.8,3.8,0,0,0-.916-.111A3.743,3.743,0,1,0,7.38,19.169l3.4-3.879a3.751,3.751,0,0,0,.461.029,3.8,3.8,0,0,0,.614-.05l2.621,3.5a3.746,3.746,0,1,0,7.254,1.313,3.93,3.93,0,0,0-.036-.531l4.883-4.4a3.746,3.746,0,1,0,1.114-7.325Z"/></g></svg>