<svg xmlns="http://www.w3.org/2000/svg" width="17" height="17" viewBox="0 0 17 17"><defs><style>.a{fill:#005ece;}.b{fill:#9bfbff;}.c{fill:#46f8ff;}.d{fill:#2488ff;}.e{fill:#fff;}</style></defs><path class="a" d="M341.641,340.657l-4.328-4.328a7.215,7.215,0,0,1-.983.983l4.328,4.328Z" transform="translate(-324.641 -324.64)"/><path class="b" d="M45.76,51.521V42.435a3.3,3.3,0,0,0-2.318.972l-.983-.983a4.685,4.685,0,0,1,3.3-1.379V40a5.76,5.76,0,1,0,0,11.521Z" transform="translate(-38.61 -38.61)"/><path class="c" d="M205.778,41.045a4.718,4.718,0,0,1,3.336,8.052l-.983-.983a3.326,3.326,0,0,0-2.353-5.679h-.035v9.086a5.76,5.76,0,1,0,0-11.521v1.045Z" transform="translate(-198.592 -38.61)"/><path class="d" d="M12.672,11.689a7.158,7.158,0,1,0-.983.983A7.216,7.216,0,0,0,12.672,11.689ZM7.151,1.39a5.76,5.76,0,1,1-5.76,5.76A5.767,5.767,0,0,1,7.151,1.39Z"/><path class="e" d="M116.449,72.417a3.332,3.332,0,0,1,0,4.706l.983.983a4.716,4.716,0,0,0-3.336-8.052h-.035a4.685,4.685,0,0,0-3.3,1.379l.983.983a3.3,3.3,0,0,1,2.318-.972h.035A3.3,3.3,0,0,1,116.449,72.417Z" transform="translate(-106.911 -67.619)"/></svg>