<svg xmlns="http://www.w3.org/2000/svg" width="16.344" height="21" viewBox="0 0 16.344 21"><defs><style>.a{fill:#16a085;}.b{fill:#1abc9c;}</style></defs><path class="a" d="M93.712,26.848a.7.7,0,0,1,.331.928l-.213.448L83.057,23.108l.213-.448a.7.7,0,0,1,.929-.331Z" transform="translate(-79.244 -20.616)"/><path class="b" d="M61.92,102.724l-.905,10.86a1.169,1.169,0,0,1-1.158,1.065H54.419a1.168,1.168,0,0,1-1.157-1.065l-.905-10.86Z" transform="translate(-50.814 -95.129)"/><path d="M46.586,4.9a2.178,2.178,0,0,1,1.031,2.9L47.088,8.91a.739.739,0,0,1-.986.351L44.017,8.27l-.859,10.308A2.656,2.656,0,0,1,40.526,21H35.089a2.656,2.656,0,0,1-2.631-2.422L31.486,6.917a.74.74,0,0,1,.737-.8h7.259L33.994,3.51a.739.739,0,0,1-.35-.985l.53-1.116a2.178,2.178,0,0,1,2.9-1.032l2.07.983.108-.226A1.984,1.984,0,0,1,41.9.193l1.784.847a1.99,1.99,0,0,1,.942,2.646l-.108.226Zm-.3,2.264a.7.7,0,0,0-.331-.928L36.438,1.713a.7.7,0,0,0-.929.331l-.213.448L46.069,7.608Zm-3-4.108a.508.508,0,0,0-.241-.676l-1.783-.847a.508.508,0,0,0-.676.241l-.107.226,2.7,1.283Zm-1.6,15.4.905-10.86H33.027l.905,10.86a1.168,1.168,0,0,0,1.157,1.065h5.438A1.169,1.169,0,0,0,41.684,18.455Z" transform="translate(-31.483 0)"/></svg>